# Blender v2.79 (sub 0) OBJ File: 'sign.blend'
# www.blender.org
mtllib sign.mtl
o sign_Cylinder003
v 0.410237 2.665126 -0.041067
v 0.390420 2.540004 -0.041067
v 0.390420 2.540004 -0.051044
v 0.410237 2.665126 -0.051044
v 0.332908 2.427130 -0.041067
v 0.332908 2.427130 -0.051044
v 0.243330 2.337553 -0.041067
v 0.243330 2.337553 -0.051044
v 0.130457 2.280041 -0.041067
v 0.130457 2.280041 -0.051044
v 0.005335 2.260224 -0.041067
v 0.005335 2.260224 -0.051044
v -0.119787 2.280041 -0.041067
v -0.119787 2.280041 -0.051044
v -0.232660 2.337553 -0.041067
v -0.232660 2.337553 -0.051044
v -0.322238 2.427130 -0.041067
v -0.322238 2.427130 -0.051044
v -0.379750 2.540004 -0.041067
v -0.379750 2.540004 -0.051044
v -0.399567 2.665126 -0.041067
v -0.399567 2.665126 -0.051044
v -0.379750 2.790247 -0.041067
v -0.379750 2.790247 -0.051044
v -0.322238 2.903121 -0.041067
v -0.322238 2.903121 -0.051044
v -0.232660 2.992698 -0.041067
v -0.232660 2.992698 -0.051044
v -0.119786 3.050210 -0.041067
v -0.119786 3.050210 -0.051044
v 0.005335 3.070027 -0.041067
v 0.005335 3.070027 -0.051044
v 0.130457 3.050210 -0.041067
v 0.130457 3.050210 -0.051044
v 0.243331 2.992698 -0.041067
v 0.243331 2.992698 -0.051044
v 0.332908 2.903121 -0.041067
v 0.332908 2.903121 -0.051044
v 0.390420 2.790247 -0.041067
v 0.390420 2.790247 -0.051044
v 0.005335 2.665126 -0.041067
v 0.005335 2.665126 -0.051044
v -0.062804 2.627476 0.063875
v 0.068777 2.627476 0.063875
v 0.068777 2.711572 0.056518
v -0.062804 2.711572 0.056518
v 0.069139 2.619441 -0.023654
v 0.069132 2.703538 -0.030992
v -0.063158 2.619442 -0.023643
v -0.063167 2.703537 -0.031003
v 0.176169 2.619225 -0.026128
v 0.176169 2.703320 -0.033486
v -0.170196 2.703320 -0.033486
v -0.170196 2.619225 -0.026128
v 0.063307 2.711095 0.051068
v 0.063307 2.626999 0.058425
v -0.057334 2.626999 0.058425
v -0.057334 2.711095 0.051068
v 0.063307 2.702945 -0.037780
v 0.063307 2.618849 -0.030422
v -0.057334 2.618849 -0.030422
v -0.057334 2.702945 -0.037780
v 0.176169 2.702945 -0.037780
v 0.176169 2.618849 -0.030422
v -0.170196 2.618849 -0.030422
v -0.170196 2.702945 -0.037780
v 0.110393 2.660818 0.001725
v 0.121064 2.660818 0.001725
v 0.121064 2.671489 0.001725
v 0.110393 2.671489 0.001725
v 0.125917 2.655965 -0.030335
v 0.105539 2.655965 -0.030335
v 0.125917 2.676343 -0.030335
v 0.105539 2.676343 -0.030335
v 0.125865 2.656017 -0.017593
v 0.105592 2.656017 -0.017593
v 0.125865 2.676290 -0.017593
v 0.105592 2.676290 -0.017593
v 0.120069 2.661813 -0.017443
v 0.111387 2.661813 -0.017443
v 0.120069 2.670495 -0.017443
v 0.111387 2.670495 -0.017443
v -0.123165 2.660818 0.001725
v -0.112493 2.660818 0.001725
v -0.112493 2.671489 0.001725
v -0.123165 2.671489 0.001725
v -0.107640 2.655965 -0.030335
v -0.128018 2.655965 -0.030335
v -0.107640 2.676343 -0.030335
v -0.128018 2.676343 -0.030335
v -0.107693 2.656017 -0.017593
v -0.127966 2.656017 -0.017593
v -0.107693 2.676290 -0.017593
v -0.127966 2.676290 -0.017593
v -0.113488 2.661813 -0.017443
v -0.122170 2.661813 -0.017443
v -0.113488 2.670495 -0.017443
v -0.122170 2.670495 -0.017443
v -0.036663 2.799377 0.041260
v 0.042636 2.799377 0.041260
v 0.042636 2.799377 -0.038040
v -0.036663 2.799377 -0.038040
v -0.023187 2.284070 0.081068
v 0.056112 2.284070 0.081068
v -0.023401 0.943520 0.035654
v 0.055898 0.943520 0.035654
v 0.029204 1.731059 0.060401
v -0.050095 1.731059 0.060401
v 0.056112 2.284070 0.001769
v 0.055898 0.943520 -0.043645
v 0.029204 1.731059 -0.018898
v -0.023187 2.284070 0.001769
v -0.023401 0.943520 -0.043645
v -0.050095 1.731059 -0.018898
v -0.045040 0.442199 0.027796
v 0.034259 0.442199 0.027796
v 0.034259 0.442199 -0.051504
v -0.045040 0.442199 -0.051504
v -0.036663 -0.000000 0.041259
v 0.042636 -0.000000 0.041259
v 0.042636 -0.000000 -0.038040
v -0.036663 -0.000000 -0.038040
vt 0.219344 0.491451
vt 0.298351 0.492560
vt 0.297343 0.498372
vt 0.220181 0.497298
vt 0.373077 0.518243
vt 0.370317 0.523463
vt 0.436356 0.565579
vt 0.432124 0.569679
vt 0.481736 0.630305
vt 0.476431 0.632886
vt 0.505178 0.705964
vt 0.499319 0.706523
vt 0.504532 0.784332
vt 0.498387 0.783574
vt 0.478464 0.859253
vt 0.473239 0.856530
vt 0.430904 0.922426
vt 0.426792 0.918195
vt 0.366346 0.968035
vt 0.363751 0.962743
vt 0.290794 0.991230
vt 0.289960 0.985385
vt 0.211780 0.990171
vt 0.212795 0.984360
vt 0.137038 0.964539
vt 0.139802 0.959316
vt 0.073749 0.917234
vt 0.077991 0.913124
vt 0.028361 0.852557
vt 0.033671 0.849956
vt 0.004981 0.777085
vt 0.010830 0.776251
vt 0.006282 0.698086
vt 0.012109 0.699100
vt 0.031737 0.623288
vt 0.036960 0.626049
vt 0.079234 0.560148
vt 0.083352 0.564390
vt 0.143798 0.514600
vt 0.146403 0.519901
vt 0.749245 0.745748
vt 0.711721 0.501502
vt 0.789009 0.501837
vt 0.862403 0.526034
vt 0.255049 0.741358
vt 0.993235 0.785252
vt 0.969111 0.858662
vt 0.923488 0.921031
vt 0.969909 0.634403
vt 0.993514 0.707983
vt 0.924736 0.571708
vt 0.575317 0.570193
vt 0.638103 0.525044
vt 0.529552 0.632523
vt 0.860835 0.966263
vt 0.787259 0.989935
vt 0.709969 0.989724
vt 0.636505 0.965645
vt 0.574068 0.920058
vt 0.528708 0.857403
vt 0.834856 0.460200
vt 0.739100 0.459144
vt 0.739796 0.396681
vt 0.835540 0.397738
vt 0.673521 0.459092
vt 0.674236 0.395832
vt 0.900410 0.461596
vt 0.901113 0.398335
vt 0.592992 0.457443
vt 0.593676 0.395687
vt 0.981648 0.399978
vt 0.980963 0.461734
vt 0.262138 0.416916
vt 0.260662 0.480493
vt 0.169804 0.478361
vt 0.171286 0.414785
vt 0.329307 0.418748
vt 0.327866 0.482325
vt 0.102618 0.477091
vt 0.104075 0.413514
vt 0.414296 0.420646
vt 0.412878 0.484223
vt 0.017625 0.475159
vt 0.019070 0.411581
vt 0.740458 0.392735
vt 0.834964 0.393778
vt 0.834179 0.464164
vt 0.739689 0.463121
vt 0.674047 0.390739
vt 0.673249 0.464193
vt 0.901405 0.393249
vt 0.900578 0.466704
vt 0.591080 0.458772
vt 0.591792 0.394315
vt 0.983562 0.398649
vt 0.982846 0.463105
vt 0.683631 0.253598
vt 0.684457 0.272934
vt 0.665096 0.273875
vt 0.664220 0.254449
vt 0.730942 0.268454
vt 0.729551 0.235796
vt 0.758694 0.238081
vt 0.751746 0.270288
vt 0.727646 0.296696
vt 0.749071 0.298825
vt 0.725291 0.325035
vt 0.746059 0.327326
vt 0.717517 0.356783
vt 0.746553 0.360266
vt 0.719727 0.271494
vt 0.718304 0.251969
vt 0.717935 0.295739
vt 0.714886 0.319855
vt 0.709652 0.338718
vt 0.683558 0.292332
vt 0.680540 0.311553
vt 0.675950 0.330301
vt 0.970491 0.328620
vt 0.966983 0.309066
vt 0.986544 0.305432
vt 0.990117 0.325071
vt 0.920322 0.320023
vt 0.926226 0.353050
vt 0.896270 0.354736
vt 0.898909 0.321023
vt 0.919788 0.290838
vt 0.897702 0.291627
vt 0.918273 0.261687
vt 0.896835 0.262221
vt 0.921808 0.228324
vt 0.891798 0.228783
vt 0.931309 0.315383
vt 0.935441 0.335053
vt 0.929791 0.290475
vt 0.929569 0.265524
vt 0.932298 0.245615
vt 0.965225 0.289210
vt 0.965651 0.269240
vt 0.967738 0.249537
vt 0.055215 0.328292
vt 0.055632 0.371753
vt 0.012090 0.372214
vt 0.011672 0.328669
vt 0.338864 0.328643
vt 0.338558 0.372320
vt 0.454971 0.143213
vt 0.455513 0.188635
vt 0.006164 0.194758
vt 0.004169 0.149606
vt 0.052991 0.242513
vt 0.055336 0.199301
vt 0.337766 0.196826
vt 0.337113 0.240528
vt 0.453445 0.006837
vt 0.454819 0.052109
vt 0.005194 0.059241
vt 0.002915 0.013975
vt 0.052607 0.285426
vt 0.337809 0.284638
vt 0.455332 0.097570
vt 0.004798 0.104479
vt 0.742115 0.140202
vt 0.741946 0.185288
vt 0.642835 0.325737
vt 0.641806 0.369103
vt 0.740989 0.005279
vt 0.740918 0.050481
vt 0.640542 0.196505
vt 0.641577 0.239810
vt 0.741555 0.095389
vt 0.643342 0.282721
vt 0.994801 0.139575
vt 0.995379 0.184984
vt 0.994309 0.002915
vt 0.993701 0.048302
vt 0.993567 0.093939
vn 0.9877 -0.1564 0.0000
vn 0.8910 -0.4540 0.0000
vn 0.7071 -0.7071 0.0000
vn 0.4540 -0.8910 0.0000
vn 0.1564 -0.9877 0.0000
vn -0.1564 -0.9877 0.0000
vn -0.4540 -0.8910 0.0000
vn -0.7071 -0.7071 0.0000
vn -0.8910 -0.4540 0.0000
vn -0.9877 -0.1564 0.0000
vn -0.9877 0.1564 0.0000
vn -0.8910 0.4540 0.0000
vn -0.7071 0.7071 0.0000
vn -0.4540 0.8910 0.0000
vn -0.1564 0.9877 0.0000
vn 0.1564 0.9877 0.0000
vn 0.4540 0.8910 0.0000
vn 0.7071 0.7071 0.0000
vn 0.8910 0.4540 0.0000
vn 0.9877 0.1564 0.0000
vn 0.0000 0.0000 1.0000
vn -0.0000 0.0000 -1.0000
vn 0.0000 0.0872 0.9962
vn 1.0000 0.0004 0.0041
vn -1.0000 0.0003 0.0041
vn 0.0233 0.0870 0.9959
vn -0.0233 0.0871 0.9959
vn 0.0000 -0.0872 -0.9962
vn -1.0000 -0.0000 0.0000
vn 1.0000 -0.0000 0.0000
vn 0.0000 0.9962 -0.0871
vn 0.0000 -0.9962 0.0872
vn 0.0046 0.9958 -0.0914
vn -0.0046 -0.9958 0.0914
vn -0.0046 0.9958 -0.0914
vn 0.0046 -0.9958 0.0914
vn -0.0000 0.9962 -0.0872
vn -0.0000 -0.9962 0.0873
vn 0.0000 -1.0000 0.0041
vn 1.0000 -0.0000 0.0041
vn 0.0000 1.0000 0.0041
vn -1.0000 0.0000 0.0041
vn 0.0000 -0.0260 0.9997
vn 0.0260 -0.0000 0.9997
vn 0.0000 0.0260 0.9997
vn -0.0260 -0.0000 0.9997
vn 0.0000 -0.9987 -0.0518
vn 0.9987 0.0000 -0.0518
vn 0.0000 0.9987 -0.0518
vn -0.9987 -0.0000 -0.0518
vn 0.0000 1.0000 0.0000
vn 0.0000 0.0770 0.9970
vn 0.0000 -0.0314 0.9995
vn 0.9997 0.0261 0.0000
vn 0.9994 0.0339 0.0000
vn 0.0000 -0.0770 -0.9970
vn 0.0000 0.0314 -0.9995
vn -0.9997 -0.0261 0.0000
vn -0.9994 -0.0339 0.0000
vn -0.0000 -0.0157 0.9999
vn 0.0000 -0.0373 0.9993
vn 0.9991 -0.0431 0.0000
vn 0.9988 -0.0486 0.0000
vn 0.0000 0.0157 -0.9999
vn 0.0000 0.0373 -0.9993
vn -0.9991 0.0431 -0.0000
vn -0.9988 0.0486 0.0000
vn 0.0000 0.0304 0.9995
vn 0.9998 0.0189 0.0000
vn 0.0000 -0.0304 -0.9995
vn -0.9998 -0.0189 0.0000
usemtl 01___Default
s off
f 1/1/1 2/2/1 3/3/1 4/4/1
f 2/2/2 5/5/2 6/6/2 3/3/2
f 5/5/3 7/7/3 8/8/3 6/6/3
f 7/7/4 9/9/4 10/10/4 8/8/4
f 9/9/5 11/11/5 12/12/5 10/10/5
f 11/11/6 13/13/6 14/14/6 12/12/6
f 13/13/7 15/15/7 16/16/7 14/14/7
f 15/15/8 17/17/8 18/18/8 16/16/8
f 17/17/9 19/19/9 20/20/9 18/18/9
f 19/19/10 21/21/10 22/22/10 20/20/10
f 21/21/11 23/23/11 24/24/11 22/22/11
f 23/23/12 25/25/12 26/26/12 24/24/12
f 25/25/13 27/27/13 28/28/13 26/26/13
f 27/27/14 29/29/14 30/30/14 28/28/14
f 29/29/15 31/31/15 32/32/15 30/30/15
f 31/31/16 33/33/16 34/34/16 32/32/16
f 33/33/17 35/35/17 36/36/17 34/34/17
f 35/35/18 37/37/18 38/38/18 36/36/18
f 37/37/19 39/39/19 40/40/19 38/38/19
f 1/1/20 4/4/20 40/40/20 39/39/20
f 41/41/21 2/42/21 1/43/21 39/44/21
f 42/45/22 40/40/22 4/4/22 3/3/22
f 31/46/21 29/47/21 27/48/21 41/41/21
f 12/12/22 14/14/22 16/16/22 42/45/22
f 35/49/21 33/50/21 31/46/21 41/41/21
f 32/32/22 34/34/22 36/36/22 42/45/22
f 39/44/21 37/51/21 35/49/21 41/41/21
f 36/36/22 38/38/22 40/40/22 42/45/22
f 3/3/22 6/6/22 8/8/22 42/45/22
f 7/52/21 5/53/21 2/42/21 41/41/21
f 8/8/22 10/10/22 12/12/22 42/45/22
f 11/11/21 9/54/21 7/52/21 41/41/21
f 27/48/21 25/55/21 23/56/21 41/41/21
f 28/28/22 30/30/22 32/32/22 42/45/22
f 24/24/22 26/26/22 28/28/22 42/45/22
f 21/57/21 19/58/21 41/41/21 23/56/21
f 20/20/22 22/22/22 24/24/22 42/45/22
f 19/58/21 17/59/21 15/60/21 41/41/21
f 16/16/22 18/18/22 20/20/22 42/45/22
f 15/60/21 13/13/21 11/11/21 41/41/21
f 43/61/23 44/62/23 45/63/23 46/64/23
f 44/62/24 47/65/24 48/66/24 45/63/24
f 49/67/25 43/61/25 46/64/25 50/68/25
f 51/69/26 52/70/26 48/66/26 47/65/26
f 53/71/27 54/72/27 49/67/27 50/68/27
f 55/73/28 56/74/28 57/75/28 58/76/28
f 59/77/29 60/78/29 56/74/29 55/73/29
f 58/76/30 57/75/30 61/79/30 62/80/30
f 59/77/28 63/81/28 64/82/28 60/78/28
f 61/79/28 65/83/28 66/84/28 62/80/28
f 55/85/31 58/86/31 46/64/31 45/63/31
f 57/87/32 56/88/32 44/62/32 43/61/32
f 59/89/33 55/85/33 45/63/33 48/66/33
f 56/88/34 60/90/34 47/65/34 44/62/34
f 58/86/35 62/91/35 50/68/35 46/64/35
f 61/92/36 57/87/36 43/61/36 49/67/36
f 60/90/32 64/93/32 51/69/32 47/65/32
f 64/93/30 63/94/30 52/70/30 51/69/30
f 63/94/37 59/89/37 48/66/37 52/70/37
f 62/91/31 66/95/31 53/71/31 50/68/31
f 66/95/29 65/96/29 54/72/29 53/71/29
f 65/96/38 61/92/38 49/67/38 54/72/38
f 67/97/21 68/98/21 69/99/21 70/100/21
f 75/101/39 76/102/39 72/103/39 71/104/39
f 77/105/40 75/101/40 71/104/40 73/106/40
f 78/107/41 77/105/41 73/106/41 74/108/41
f 76/109/42 78/107/42 74/108/42 72/110/42
f 79/111/43 80/112/43 76/102/43 75/101/43
f 81/113/44 79/111/44 75/101/44 77/105/44
f 82/114/45 81/113/45 77/105/45 78/107/45
f 80/115/46 82/114/46 78/107/46 76/109/46
f 68/98/47 67/97/47 80/112/47 79/111/47
f 69/116/48 68/98/48 79/111/48 81/113/48
f 70/117/49 69/116/49 81/113/49 82/114/49
f 67/118/50 70/117/50 82/114/50 80/115/50
f 83/119/21 84/120/21 85/121/21 86/122/21
f 91/123/39 92/124/39 88/125/39 87/126/39
f 93/127/40 91/123/40 87/126/40 89/128/40
f 94/129/41 93/127/41 89/128/41 90/130/41
f 92/131/42 94/129/42 90/130/42 88/132/42
f 95/133/43 96/134/43 92/124/43 91/123/43
f 97/135/44 95/133/44 91/123/44 93/127/44
f 98/136/45 97/135/45 93/127/45 94/129/45
f 96/137/46 98/136/46 94/129/46 92/131/46
f 84/120/47 83/119/47 96/134/47 95/133/47
f 85/138/48 84/120/48 95/133/48 97/135/48
f 86/139/49 85/138/49 97/135/49 98/136/49
f 83/140/50 86/139/50 98/136/50 96/137/50
f 99/141/51 100/142/51 101/143/51 102/144/51
f 100/142/52 99/141/52 103/145/52 104/146/52
f 105/147/53 106/148/53 107/149/53 108/150/53
f 101/151/54 100/152/54 104/153/54 109/154/54
f 106/155/55 110/156/55 111/157/55 107/158/55
f 102/159/56 101/151/56 109/154/56 112/160/56
f 110/156/57 113/161/57 114/162/57 111/157/57
f 99/141/58 102/159/58 112/160/58 103/145/58
f 113/161/59 105/147/59 108/150/59 114/162/59
f 115/163/60 116/164/60 106/148/60 105/147/60
f 104/146/61 103/145/61 108/165/61 107/166/61
f 116/167/62 117/168/62 110/156/62 106/155/62
f 109/154/63 104/153/63 107/169/63 111/170/63
f 117/168/64 118/171/64 113/161/64 110/156/64
f 112/160/65 109/154/65 111/170/65 114/172/65
f 118/171/66 115/163/66 105/147/66 113/161/66
f 103/145/67 112/160/67 114/172/67 108/165/67
f 119/173/68 120/174/68 116/164/68 115/163/68
f 120/175/69 121/176/69 117/168/69 116/167/69
f 121/176/70 122/177/70 118/171/70 117/168/70
f 122/177/71 119/173/71 115/163/71 118/171/71
